<?xml version="1.0" encoding="UTF-8" standalone="no"?>
<!DOCTYPE svg PUBLIC "-//W3C//DTD SVG 1.1//EN" "http://www.w3.org/Graphics/SVG/1.1/DTD/svg11.dtd">
<!-- Generated by Microsoft Visio, SVG Export load-view-flow.svg View load flow -->
<svg xmlns="http://www.w3.org/2000/svg" xmlns:xlink="http://www.w3.org/1999/xlink" xmlns:ev="http://www.w3.org/2001/xml-events"
		width="2.3403in" height="4.54172in" viewBox="0 0 168.501 327.004" xml:space="preserve" color-interpolation-filters="sRGB"
		class="st12">
	<style type="text/css">
	<![CDATA[
		.st1 {fill:#ffffff;stroke:#e6742e;stroke-linecap:round;stroke-linejoin:round;stroke-width:2}
		.st2 {fill:#893e11;font-family:Calibri;font-size:1.00001em;font-weight:bold}
		.st3 {fill:#ffffff;stroke:#e7742e;stroke-linecap:round;stroke-linejoin:round;stroke-width:2}
		.st4 {marker-end:url(#mrkr4-14);stroke:#e6742e;stroke-linecap:round;stroke-linejoin:round;stroke-width:1}
		.st5 {fill:#e6742e;fill-opacity:1;stroke:#e6742e;stroke-opacity:1;stroke-width:0.28409090909091}
		.st6 {fill:#ffffff;stroke:none;stroke-linecap:butt}
		.st7 {fill:#893e11;font-family:Calibri;font-size:0.833336em}
		.st8 {fill:#ffffff;stroke:none;stroke-linecap:butt;stroke-width:7.2}
		.st9 {fill:#e6742e}
		.st10 {stroke:#e7742e;stroke-linecap:round;stroke-linejoin:round;stroke-width:1}
		.st11 {fill:#e6742e;font-family:Calibri;font-size:0.833336em}
		.st12 {fill:none;fill-rule:evenodd;font-size:12px;overflow:visible;stroke-linecap:square;stroke-miterlimit:3}
	]]>
	</style>

	<defs id="Markers">
		<g id="lend4">
			<path d="M 2 1 L 0 0 L 2 -1 L 2 1 " style="stroke:none"/>
		</g>
		<marker id="mrkr4-14" class="st5" refX="-7.04" orient="auto" markerUnits="strokeWidth" overflow="visible">
			<use xlink:href="#lend4" transform="scale(-3.52,-3.52) "/>
		</marker>
	</defs>
	<g>
		<title>View load flow</title>
		<g id="shape1-1" transform="translate(30.2507,-186.504)">
			<title>Action</title>
			<desc>preLoad</desc>
			<rect x="0" y="291.004" width="108" height="36" rx="9" ry="9" class="st1"/>
			<text x="33.68" y="312.6" class="st2">preLoad</text>		</g>
		<g id="shape2-4" transform="translate(66.2507,-272.004)">
			<title>Initial node</title>
			<ellipse cx="18" cy="309.004" rx="18" ry="18" class="st3"/>
		</g>
		<g id="shape3-6" transform="translate(30.2507,-101.004)">
			<title>Action.3</title>
			<desc>postLoad</desc>
			<rect x="0" y="291.004" width="108" height="36" rx="9" ry="9" class="st1"/>
			<text x="31.14" y="312.6" class="st2">postLoad</text>		</g>
		<g id="shape5-9" transform="translate(75.2507,-272.004)">
			<title>Dynamic connector</title>
			<desc>Load HTML and create $scope</desc>
			<path d="M9 327 L9 369.46" class="st4"/>
			<rect x="-52.1185" y="345.754" width="122.237" height="12.0001" class="st6"/>
			<text x="-52.12" y="354.75" class="st7">Load HTML and create $scope</text>		</g>
		<g id="shape6-17" transform="translate(75.2507,-186.504)">
			<title>Dynamic connector.6</title>
			<desc>Compile HTML</desc>
			<path d="M9 327 L9 369.46" class="st4"/>
			<rect x="-20.7658" y="345.754" width="59.5319" height="12.0001" class="st8"/>
			<text x="-20.77" y="354.75" class="st7">Compile HTML</text>		</g>
		<g id="shape7-24" transform="translate(66.2507,-38.0036)">
			<title>Final node</title>
			<desc>View is ready</desc>
			<path d="M32.4 309 A14.4 14.4 -180 1 0 3.6 309 A14.4 14.4 -180 1 0 32.4 309 Z" class="st9"/>
			<path d="M36 309 A18 18 -180 1 0 0 309 A18 18 -180 1 0 36 309" class="st10"/>
			<path d="M32.4 309 A14.4 14.4 -180 1 0 3.6 309 A14.4 14.4 -180 1 0 32.4 309" class="st10"/>
			<text x="-8.93" y="340.01" class="st11">View is ready</text>		</g>
		<g id="shape8-29" transform="translate(75.2507,-101.004)">
			<title>Dynamic connector.8</title>
			<path d="M9 327 L9 346.96" class="st4"/>
		</g>
	</g>
</svg>
